<?xml version="1.0" encoding="UTF-8" standalone="no"?>
<!-- Generator: Adobe Illustrator 15.1.0, SVG Export Plug-In . SVG Version: 6.00 Build 0)  -->

<svg
   xmlns:dc="http://purl.org/dc/elements/1.1/"
   xmlns:cc="http://creativecommons.org/ns#"
   xmlns:rdf="http://www.w3.org/1999/02/22-rdf-syntax-ns#"
   xmlns:svg="http://www.w3.org/2000/svg"
   xmlns="http://www.w3.org/2000/svg"
   xmlns:sodipodi="http://sodipodi.sourceforge.net/DTD/sodipodi-0.dtd"
   xmlns:inkscape="http://www.inkscape.org/namespaces/inkscape"
   version="1.1"
   id="Layer_1"
   x="0px"
   y="0px"
   width="792px"
   height="612px"
   viewBox="0 0 792 612"
   enable-background="new 0 0 792 612"
   xml:space="preserve"
   inkscape:version="0.48.2 r9819"
   sodipodi:docname="RHJB_EnterpriseApplicationPlatform_Logotype_CMYK-Gray_0213_cw.svg"><metadata
   id="metadata93"><rdf:RDF><cc:Work
       rdf:about=""><dc:format>image/svg+xml</dc:format><dc:type
         rdf:resource="http://purl.org/dc/dcmitype/StillImage" /></cc:Work></rdf:RDF></metadata><defs
   id="defs91" /><sodipodi:namedview
   pagecolor="#ffffff"
   bordercolor="#666666"
   borderopacity="1"
   objecttolerance="10"
   gridtolerance="10"
   guidetolerance="10"
   inkscape:pageopacity="0"
   inkscape:pageshadow="2"
   inkscape:window-width="640"
   inkscape:window-height="480"
   id="namedview89"
   showgrid="false"
   inkscape:zoom="0.54535033"
   inkscape:cx="374.95637"
   inkscape:cy="307.51907"
   inkscape:window-x="0"
   inkscape:window-y="0"
   inkscape:window-maximized="0"
   inkscape:current-layer="Layer_1" />
<g
   id="g3"
   transform="translate(-93.355932,-111.50847)">
	<path
   d="m 119.724,144 -2.743,-5.664 h -1.877 V 144 h -4.56 v -16.8 h 7.512 c 0.976,0 1.868,0.1 2.676,0.3 0.808,0.2 1.5,0.516 2.076,0.948 0.576,0.432 1.02,0.996 1.332,1.692 0.312,0.696 0.468,1.54 0.468,2.532 0,1.264 -0.273,2.296 -0.818,3.096 -0.545,0.8 -1.283,1.408 -2.213,1.824 l 3.368,6.408 h -5.221 z m -0.219,-12.504 c -0.313,-0.336 -0.84,-0.504 -1.58,-0.504 h -2.822 v 3.672 h 2.75 c 0.771,0 1.318,-0.16 1.64,-0.48 0.322,-0.32 0.483,-0.784 0.483,-1.392 0,-0.528 -0.157,-0.96 -0.471,-1.296 z"
   id="path5"
   inkscape:connector-curvature="0"
   style="fill:#58595b" />
	<path
   d="m 127.728,144 v -16.8 h 12.864 v 3.912 h -8.256 v 2.256 h 4.968 v 3.84 h -4.968 v 2.88 h 8.424 V 144 h -13.032 z"
   id="path7"
   inkscape:connector-curvature="0"
   style="fill:#58595b" />
	<path
   d="m 157.679,139.5 c -0.384,1.08 -0.96,1.952 -1.728,2.616 -0.768,0.664 -1.716,1.144 -2.844,1.44 -1.128,0.296 -2.436,0.444 -3.924,0.444 h -5.448 v -16.8 h 5.88 c 1.312,0 2.504,0.136 3.576,0.408 1.072,0.272 1.98,0.732 2.724,1.38 0.744,0.648 1.32,1.5 1.728,2.556 0.408,1.056 0.612,2.376 0.612,3.96 0,1.584 -0.192,2.916 -0.576,3.996 z m -4.404,-5.916 c -0.136,-0.56 -0.356,-1.016 -0.66,-1.368 -0.304,-0.352 -0.704,-0.612 -1.2,-0.78 -0.496,-0.168 -1.104,-0.252 -1.824,-0.252 h -1.152 v 8.832 h 1.008 c 0.72,0 1.336,-0.076 1.848,-0.228 0.512,-0.152 0.932,-0.4 1.26,-0.744 0.328,-0.344 0.564,-0.8 0.708,-1.368 0.144,-0.567 0.216,-1.268 0.216,-2.1 0,-0.768 -0.068,-1.432 -0.204,-1.992 z"
   id="path9"
   inkscape:connector-curvature="0"
   style="fill:#58595b" />
	<path
   d="m 178.966,144 v -6.624 h -5.232 V 144 h -4.752 v -16.8 h 4.752 v 6.12 h 5.232 v -6.12 h 4.752 V 144 h -4.752 z"
   id="path11"
   inkscape:connector-curvature="0"
   style="fill:#58595b" />
	<path
   d="m 197.974,144 -0.912,-2.952 h -5.04 L 191.11,144 h -4.992 l 6.096,-16.8 h 4.704 l 6.096,16.8 h -5.04 z m -2.351,-7.752 c -0.144,-0.544 -0.272,-1.016 -0.384,-1.416 -0.112,-0.4 -0.212,-0.76 -0.3,-1.08 -0.088,-0.32 -0.165,-0.612 -0.228,-0.876 -0.064,-0.264 -0.12,-0.54 -0.168,-0.828 -0.048,0.288 -0.104,0.568 -0.168,0.84 -0.064,0.272 -0.141,0.568 -0.228,0.888 -0.088,0.32 -0.188,0.68 -0.3,1.08 -0.112,0.4 -0.24,0.864 -0.384,1.392 l -0.312,1.104 h 2.784 l -0.312,-1.104 z"
   id="path13"
   inkscape:connector-curvature="0"
   style="fill:#58595b" />
	<path
   d="M 211.798,131.256 V 144 h -4.656 v -12.744 h -4.704 V 127.2 h 14.064 v 4.056 h -4.704 z"
   id="path15"
   inkscape:connector-curvature="0"
   style="fill:#58595b" />
	<path
   d="m 222.792,130.06 c -0.105,0.253 -0.251,0.473 -0.437,0.659 -0.186,0.186 -0.406,0.332 -0.659,0.437 -0.253,0.105 -0.527,0.158 -0.822,0.158 -0.295,0 -0.569,-0.053 -0.822,-0.158 -0.253,-0.105 -0.472,-0.251 -0.658,-0.437 -0.186,-0.186 -0.332,-0.405 -0.437,-0.659 -0.105,-0.253 -0.158,-0.527 -0.158,-0.822 0,-0.295 0.053,-0.569 0.158,-0.822 0.105,-0.253 0.251,-0.472 0.437,-0.658 0.186,-0.186 0.405,-0.332 0.658,-0.437 0.253,-0.105 0.527,-0.158 0.822,-0.158 0.295,0 0.569,0.053 0.822,0.158 0.253,0.105 0.473,0.251 0.659,0.437 0.186,0.186 0.332,0.405 0.437,0.658 0.105,0.253 0.158,0.527 0.158,0.822 0,0.295 -0.053,0.569 -0.158,0.822 z m -0.308,-1.51 c -0.088,-0.213 -0.211,-0.397 -0.368,-0.555 -0.157,-0.158 -0.342,-0.28 -0.555,-0.368 -0.213,-0.088 -0.442,-0.132 -0.688,-0.132 -0.249,0 -0.479,0.044 -0.69,0.132 -0.211,0.088 -0.395,0.211 -0.552,0.368 -0.157,0.157 -0.28,0.342 -0.368,0.555 -0.088,0.213 -0.132,0.442 -0.132,0.687 0,0.25 0.044,0.479 0.132,0.69 0.088,0.21 0.211,0.395 0.368,0.552 0.157,0.157 0.341,0.28 0.552,0.368 0.211,0.088 0.441,0.132 0.69,0.132 0.246,0 0.475,-0.044 0.688,-0.132 0.212,-0.088 0.397,-0.211 0.555,-0.368 0.158,-0.157 0.28,-0.341 0.368,-0.552 0.088,-0.211 0.132,-0.441 0.132,-0.69 0,-0.245 -0.044,-0.474 -0.132,-0.687 z m -0.799,0.636 c -0.088,0.111 -0.205,0.188 -0.351,0.23 l 0.466,0.915 h -0.453 l -0.441,-0.874 h -0.435 v 0.874 h -0.385 v -2.266 h 0.991 c 0.1,0 0.194,0.014 0.284,0.041 0.089,0.027 0.168,0.068 0.235,0.124 0.067,0.056 0.12,0.126 0.16,0.212 0.04,0.086 0.061,0.189 0.061,0.308 0,0.179 -0.044,0.325 -0.132,0.436 z m -0.356,-0.667 c -0.069,-0.053 -0.155,-0.08 -0.259,-0.08 h -0.598 v 0.644 h 0.598 c 0.104,0 0.189,-0.026 0.259,-0.078 0.069,-0.052 0.104,-0.133 0.104,-0.244 -0.001,-0.108 -0.036,-0.189 -0.104,-0.242 z"
   id="path17"
   inkscape:connector-curvature="0"
   style="fill:#58595b" />
	<path
   d="m 240.894,140.124 c -0.288,0.872 -0.724,1.616 -1.308,2.232 -0.584,0.616 -1.32,1.088 -2.208,1.416 -0.888,0.328 -1.924,0.492 -3.108,0.492 -1.12,0 -2.088,-0.136 -2.904,-0.408 -0.816,-0.272 -1.516,-0.66 -2.1,-1.164 -0.584,-0.504 -1.064,-1.116 -1.44,-1.836 -0.376,-0.72 -0.668,-1.52 -0.876,-2.4 l 4.56,-1.2 c 0.288,0.96 0.632,1.684 1.032,2.172 0.4,0.488 1,0.732 1.8,0.732 0.752,0 1.312,-0.236 1.68,-0.708 0.368,-0.472 0.552,-1.116 0.552,-1.932 V 127.2 h 4.752 v 9.96 c 0,1.104 -0.144,2.092 -0.432,2.964 z"
   id="path19"
   inkscape:connector-curvature="0"
   style="fill:#58595b" />
	<path
   d="m 257.477,142.586 c -1.04,0.942 -2.625,1.414 -4.752,1.414 h -8.064 v -16.8 h 8.112 c 2.08,0 3.58,0.376 4.5,1.13 0.92,0.754 1.38,1.836 1.38,3.247 0,0.914 -0.196,1.611 -0.588,2.092 -0.392,0.48 -0.868,0.881 -1.428,1.202 0.768,0.319 1.359,0.779 1.776,1.377 0.416,0.6 0.624,1.378 0.624,2.336 0,1.726 -0.52,3.06 -1.56,4.002 z m -3.696,-11.326 c -0.208,-0.258 -0.592,-0.388 -1.152,-0.388 h -3.504 v 2.664 h 3.504 c 0.544,0 0.924,-0.121 1.14,-0.363 0.216,-0.242 0.324,-0.565 0.324,-0.969 0,-0.371 -0.104,-0.686 -0.312,-0.944 z m 0.288,6.236 c -0.272,-0.288 -0.688,-0.432 -1.248,-0.432 h -3.696 v 3.264 h 3.672 c 0.576,0 1,-0.156 1.272,-0.468 0.272,-0.312 0.408,-0.708 0.408,-1.188 0,-0.496 -0.136,-0.888 -0.408,-1.176 z"
   id="path21"
   inkscape:connector-curvature="0"
   style="fill:#58595b" />
	<path
   d="m 275.981,139.284 c -0.384,1.08 -0.92,1.988 -1.608,2.724 -0.688,0.736 -1.512,1.296 -2.472,1.68 -0.96,0.384 -2.008,0.576 -3.144,0.576 -1.136,0 -2.18,-0.188 -3.132,-0.564 -0.952,-0.376 -1.772,-0.928 -2.46,-1.656 -0.688,-0.728 -1.22,-1.632 -1.596,-2.712 -0.376,-1.08 -0.564,-2.316 -0.564,-3.708 0,-1.392 0.192,-2.628 0.576,-3.708 0.384,-1.08 0.92,-1.988 1.608,-2.724 0.688,-0.736 1.512,-1.296 2.472,-1.68 0.96,-0.384 2.008,-0.576 3.144,-0.576 1.136,0 2.18,0.188 3.132,0.564 0.952,0.376 1.768,0.928 2.448,1.656 0.68,0.729 1.212,1.632 1.596,2.712 0.384,1.08 0.576,2.316 0.576,3.708 0,1.392 -0.192,2.628 -0.576,3.708 z m -5.028,-7.116 c -0.52,-0.784 -1.252,-1.176 -2.196,-1.176 -0.944,0 -1.668,0.384 -2.172,1.152 -0.504,0.768 -0.756,1.912 -0.756,3.432 0,1.52 0.26,2.672 0.78,3.456 0.52,0.784 1.252,1.176 2.196,1.176 0.944,0 1.668,-0.384 2.172,-1.152 0.504,-0.768 0.756,-1.912 0.756,-3.432 0,-1.52 -0.26,-2.672 -0.78,-3.456 z"
   id="path23"
   inkscape:connector-curvature="0"
   style="fill:#58595b" />
	<path
   d="m 291.761,141.312 c -0.344,0.688 -0.824,1.248 -1.44,1.68 -0.616,0.432 -1.348,0.752 -2.196,0.96 -0.848,0.208 -1.776,0.312 -2.784,0.312 -1.36,0 -2.661,-0.196 -3.9,-0.588 -1.24,-0.392 -2.3,-0.876 -3.18,-1.452 l 2.256,-3.648 c 0.304,0.208 0.66,0.412 1.068,0.612 0.408,0.2 0.832,0.38 1.272,0.54 0.44,0.16 0.884,0.288 1.332,0.384 0.448,0.096 0.864,0.144 1.248,0.144 0.832,0 1.404,-0.08 1.716,-0.24 0.312,-0.16 0.468,-0.44 0.468,-0.84 0,-0.16 -0.044,-0.304 -0.132,-0.432 -0.088,-0.128 -0.24,-0.252 -0.456,-0.372 -0.216,-0.12 -0.508,-0.24 -0.876,-0.36 -0.368,-0.12 -0.832,-0.244 -1.392,-0.372 -1.008,-0.24 -1.888,-0.496 -2.64,-0.768 -0.752,-0.272 -1.376,-0.612 -1.872,-1.02 -0.496,-0.408 -0.868,-0.9 -1.116,-1.476 -0.249,-0.576 -0.372,-1.288 -0.372,-2.136 0,-0.784 0.156,-1.504 0.468,-2.16 0.312,-0.656 0.756,-1.216 1.332,-1.68 0.576,-0.464 1.272,-0.824 2.088,-1.08 0.816,-0.255 1.728,-0.384 2.736,-0.384 1.44,0 2.692,0.168 3.756,0.504 1.064,0.336 2.044,0.816 2.94,1.44 l -2.256,3.648 c -0.752,-0.512 -1.504,-0.904 -2.256,-1.176 -0.752,-0.272 -1.56,-0.408 -2.424,-0.408 -0.704,0 -1.168,0.096 -1.392,0.288 -0.224,0.192 -0.336,0.44 -0.336,0.744 0,0.16 0.044,0.3 0.132,0.42 0.087,0.12 0.236,0.232 0.444,0.336 0.208,0.104 0.488,0.208 0.84,0.312 0.352,0.104 0.8,0.22 1.344,0.348 1.056,0.256 1.968,0.536 2.736,0.84 0.768,0.304 1.4,0.664 1.896,1.08 0.496,0.416 0.864,0.912 1.104,1.488 0.24,0.576 0.36,1.256 0.36,2.04 0,0.96 -0.172,1.784 -0.516,2.472 z"
   id="path25"
   inkscape:connector-curvature="0"
   style="fill:#58595b" />
	<path
   d="m 307.697,141.312 c -0.344,0.688 -0.824,1.248 -1.44,1.68 -0.616,0.432 -1.348,0.752 -2.196,0.96 -0.848,0.208 -1.776,0.312 -2.784,0.312 -1.36,0 -2.661,-0.196 -3.9,-0.588 -1.24,-0.392 -2.3,-0.876 -3.18,-1.452 l 2.256,-3.648 c 0.304,0.208 0.66,0.412 1.068,0.612 0.408,0.2 0.832,0.38 1.272,0.54 0.44,0.16 0.884,0.288 1.332,0.384 0.448,0.096 0.864,0.144 1.248,0.144 0.832,0 1.404,-0.08 1.716,-0.24 0.312,-0.16 0.468,-0.44 0.468,-0.84 0,-0.16 -0.044,-0.304 -0.132,-0.432 -0.088,-0.128 -0.24,-0.252 -0.456,-0.372 -0.216,-0.12 -0.508,-0.24 -0.876,-0.36 -0.368,-0.12 -0.832,-0.244 -1.392,-0.372 -1.008,-0.24 -1.888,-0.496 -2.64,-0.768 -0.752,-0.272 -1.376,-0.612 -1.872,-1.02 -0.496,-0.408 -0.868,-0.9 -1.116,-1.476 -0.249,-0.576 -0.372,-1.288 -0.372,-2.136 0,-0.784 0.156,-1.504 0.468,-2.16 0.312,-0.656 0.756,-1.216 1.332,-1.68 0.576,-0.464 1.272,-0.824 2.088,-1.08 0.816,-0.255 1.728,-0.384 2.736,-0.384 1.44,0 2.692,0.168 3.756,0.504 1.064,0.336 2.044,0.816 2.94,1.44 l -2.256,3.648 c -0.752,-0.512 -1.504,-0.904 -2.256,-1.176 -0.752,-0.272 -1.56,-0.408 -2.424,-0.408 -0.704,0 -1.168,0.096 -1.392,0.288 -0.224,0.192 -0.336,0.44 -0.336,0.744 0,0.16 0.044,0.3 0.132,0.42 0.087,0.12 0.236,0.232 0.444,0.336 0.208,0.104 0.488,0.208 0.84,0.312 0.352,0.104 0.8,0.22 1.344,0.348 1.056,0.256 1.968,0.536 2.736,0.84 0.768,0.304 1.4,0.664 1.896,1.08 0.496,0.416 0.864,0.912 1.104,1.488 0.24,0.576 0.36,1.256 0.36,2.04 -0.001,0.96 -0.172,1.784 -0.516,2.472 z"
   id="path27"
   inkscape:connector-curvature="0"
   style="fill:#58595b" />
	<path
   d="m 314.718,130.06 c -0.105,0.253 -0.251,0.473 -0.437,0.659 -0.186,0.186 -0.406,0.332 -0.659,0.437 -0.253,0.105 -0.527,0.158 -0.822,0.158 -0.295,0 -0.569,-0.053 -0.822,-0.158 -0.253,-0.105 -0.472,-0.251 -0.658,-0.437 -0.186,-0.186 -0.332,-0.405 -0.437,-0.659 -0.105,-0.253 -0.158,-0.527 -0.158,-0.822 0,-0.295 0.053,-0.569 0.158,-0.822 0.105,-0.253 0.251,-0.472 0.437,-0.658 0.186,-0.186 0.405,-0.332 0.658,-0.437 0.253,-0.105 0.527,-0.158 0.822,-0.158 0.295,0 0.569,0.053 0.822,0.158 0.253,0.105 0.473,0.251 0.659,0.437 0.186,0.186 0.332,0.405 0.437,0.658 0.105,0.253 0.158,0.527 0.158,0.822 0,0.295 -0.053,0.569 -0.158,0.822 z m -0.308,-1.51 c -0.088,-0.213 -0.211,-0.397 -0.368,-0.555 -0.157,-0.158 -0.342,-0.28 -0.555,-0.368 -0.213,-0.088 -0.442,-0.132 -0.688,-0.132 -0.249,0 -0.479,0.044 -0.69,0.132 -0.211,0.088 -0.395,0.211 -0.552,0.368 -0.157,0.157 -0.28,0.342 -0.368,0.555 -0.088,0.213 -0.132,0.442 -0.132,0.687 0,0.25 0.044,0.479 0.132,0.69 0.088,0.21 0.211,0.395 0.368,0.552 0.157,0.157 0.341,0.28 0.552,0.368 0.211,0.088 0.441,0.132 0.69,0.132 0.246,0 0.475,-0.044 0.688,-0.132 0.212,-0.088 0.397,-0.211 0.555,-0.368 0.158,-0.157 0.28,-0.341 0.368,-0.552 0.088,-0.211 0.132,-0.441 0.132,-0.69 0,-0.245 -0.044,-0.474 -0.132,-0.687 z m -0.799,0.636 c -0.088,0.111 -0.205,0.188 -0.351,0.23 l 0.466,0.915 h -0.453 l -0.441,-0.874 h -0.435 v 0.874 h -0.385 v -2.266 h 0.991 c 0.1,0 0.194,0.014 0.284,0.041 0.089,0.027 0.168,0.068 0.235,0.124 0.067,0.056 0.12,0.126 0.16,0.212 0.04,0.086 0.061,0.189 0.061,0.308 0,0.179 -0.044,0.325 -0.132,0.436 z m -0.357,-0.667 c -0.069,-0.053 -0.155,-0.08 -0.259,-0.08 h -0.598 v 0.644 h 0.598 c 0.104,0 0.189,-0.026 0.259,-0.078 0.069,-0.052 0.104,-0.133 0.104,-0.244 0,-0.108 -0.035,-0.189 -0.104,-0.242 z"
   id="path29"
   inkscape:connector-curvature="0"
   style="fill:#58595b" />
	<path
   d="m 110.556,174 v -25.2 h 19.296 v 5.868 h -12.384 v 3.384 h 7.452 v 5.76 h -7.452 v 4.32 h 12.636 V 174 h -19.548 z"
   id="path31"
   inkscape:connector-curvature="0"
   style="fill:#58595b" />
	<path
   d="m 150.984,174 -6.012,-8.316 c -0.288,-0.384 -0.625,-0.858 -1.008,-1.422 -0.384,-0.564 -0.762,-1.128 -1.134,-1.692 -0.372,-0.563 -0.72,-1.098 -1.044,-1.602 -0.324,-0.504 -0.57,-0.9 -0.738,-1.188 0.048,0.288 0.083,0.69 0.108,1.206 0.023,0.517 0.048,1.08 0.072,1.692 0.024,0.612 0.036,1.242 0.036,1.89 0,0.648 0,1.224 0,1.728 V 174 h -6.696 v -25.2 h 6.156 l 5.544,7.452 c 0.288,0.384 0.63,0.864 1.026,1.44 0.396,0.576 0.786,1.152 1.17,1.728 0.383,0.576 0.731,1.116 1.044,1.62 0.312,0.504 0.54,0.888 0.684,1.152 -0.048,-0.288 -0.084,-0.689 -0.108,-1.206 -0.024,-0.516 -0.048,-1.08 -0.072,-1.692 -0.024,-0.612 -0.036,-1.242 -0.036,-1.89 0,-0.648 0,-1.224 0,-1.728 V 148.8 h 6.696 V 174 h -5.688 z"
   id="path33"
   inkscape:connector-curvature="0"
   style="fill:#58595b" />
	<path
   d="M 174.779,154.884 V 174 h -6.984 v -19.116 h -7.056 V 148.8 h 21.096 v 6.084 h -7.056 z"
   id="path35"
   inkscape:connector-curvature="0"
   style="fill:#58595b" />
	<path
   d="M 185.904,174 V 148.8 H 205.2 v 5.868 h -12.384 v 3.384 h 7.452 v 5.76 h -7.452 v 4.32 h 12.636 V 174 h -19.548 z"
   id="path37"
   inkscape:connector-curvature="0"
   style="fill:#58595b" />
	<path
   d="m 223.685,174 -4.114,-8.496 h -2.815 V 174 h -6.84 v -25.2 h 11.268 c 1.463,0 2.802,0.15 4.014,0.45 1.212,0.3 2.25,0.774 3.114,1.422 0.864,0.648 1.53,1.494 1.998,2.538 0.468,1.044 0.702,2.31 0.702,3.798 0,1.896 -0.409,3.444 -1.227,4.644 -0.818,1.201 -1.925,2.112 -3.32,2.736 l 5.051,9.612 h -7.831 z m -0.327,-18.756 c -0.47,-0.504 -1.26,-0.756 -2.37,-0.756 h -4.233 v 5.508 h 4.124 c 1.158,0 1.978,-0.24 2.46,-0.72 0.483,-0.479 0.724,-1.175 0.724,-2.088 0,-0.792 -0.235,-1.44 -0.705,-1.944 z"
   id="path39"
   inkscape:connector-curvature="0"
   style="fill:#58595b" />
	<path
   d="m 255.597,161.22 c -0.505,1.104 -1.215,1.998 -2.13,2.682 -0.915,0.684 -2.003,1.176 -3.266,1.476 -1.264,0.3 -2.653,0.45 -4.169,0.45 h -3.501 V 174 h -6.84 v -25.2 h 10.836 c 1.463,0 2.802,0.15 4.014,0.45 1.212,0.3 2.25,0.78 3.114,1.44 0.864,0.661 1.53,1.524 1.998,2.592 0.468,1.068 0.702,2.358 0.702,3.87 0,1.608 -0.253,2.964 -0.758,4.068 z m -6.878,-5.976 c -0.458,-0.504 -1.254,-0.756 -2.388,-0.756 h -3.8 v 5.652 h 3.691 c 1.158,0 1.979,-0.24 2.461,-0.72 0.483,-0.479 0.724,-1.2 0.724,-2.16 0,-0.84 -0.23,-1.512 -0.688,-2.016 z"
   id="path41"
   inkscape:connector-curvature="0"
   style="fill:#58595b" />
	<path
   d="m 273.903,174 -4.114,-8.496 h -2.815 V 174 h -6.84 v -25.2 h 11.268 c 1.463,0 2.802,0.15 4.014,0.45 1.212,0.3 2.25,0.774 3.114,1.422 0.864,0.648 1.53,1.494 1.998,2.538 0.468,1.044 0.702,2.31 0.702,3.798 0,1.896 -0.409,3.444 -1.227,4.644 -0.818,1.201 -1.925,2.112 -3.32,2.736 l 5.051,9.612 h -7.831 z m -0.326,-18.756 c -0.47,-0.504 -1.26,-0.756 -2.37,-0.756 h -4.233 v 5.508 h 4.124 c 1.158,0 1.978,-0.24 2.46,-0.72 0.483,-0.479 0.724,-1.175 0.724,-2.088 0,-0.792 -0.235,-1.44 -0.705,-1.944 z"
   id="path43"
   inkscape:connector-curvature="0"
   style="fill:#58595b" />
	<path
   d="m 286.089,174 v -25.2 h 7.128 V 174 h -7.128 z"
   id="path45"
   inkscape:connector-curvature="0"
   style="fill:#58595b" />
	<path
   d="m 317.787,169.968 c -0.517,1.032 -1.236,1.872 -2.16,2.52 -0.924,0.648 -2.022,1.128 -3.294,1.44 -1.272,0.312 -2.664,0.468 -4.176,0.468 -2.041,0 -3.99,-0.294 -5.85,-0.882 -1.86,-0.588 -3.45,-1.314 -4.77,-2.178 l 3.384,-5.472 c 0.456,0.312 0.99,0.619 1.602,0.918 0.612,0.3 1.248,0.57 1.908,0.81 0.66,0.24 1.326,0.432 1.998,0.576 0.671,0.144 1.296,0.216 1.872,0.216 1.248,0 2.106,-0.12 2.574,-0.36 0.468,-0.24 0.702,-0.66 0.702,-1.26 0,-0.24 -0.066,-0.456 -0.198,-0.648 -0.132,-0.192 -0.36,-0.378 -0.684,-0.558 -0.324,-0.18 -0.762,-0.36 -1.314,-0.54 -0.553,-0.18 -1.249,-0.366 -2.088,-0.558 -1.512,-0.36 -2.832,-0.744 -3.96,-1.152 -1.128,-0.408 -2.064,-0.918 -2.808,-1.53 -0.744,-0.612 -1.302,-1.35 -1.674,-2.214 -0.373,-0.864 -0.558,-1.932 -0.558,-3.204 0,-1.175 0.234,-2.255 0.702,-3.24 0.468,-0.984 1.134,-1.824 1.998,-2.52 0.864,-0.696 1.908,-1.236 3.132,-1.62 1.224,-0.384 2.592,-0.576 4.104,-0.576 2.16,0 4.038,0.252 5.634,0.756 1.596,0.504 3.065,1.224 4.41,2.16 l -3.384,5.472 c -1.128,-0.768 -2.256,-1.355 -3.384,-1.764 -1.128,-0.408 -2.34,-0.612 -3.636,-0.612 -1.056,0 -1.752,0.144 -2.088,0.432 -0.336,0.288 -0.504,0.66 -0.504,1.116 0,0.24 0.065,0.45 0.198,0.63 0.132,0.18 0.354,0.348 0.666,0.504 0.312,0.156 0.732,0.312 1.26,0.468 0.527,0.156 1.2,0.33 2.016,0.522 1.584,0.384 2.952,0.805 4.104,1.26 1.152,0.456 2.1,0.996 2.844,1.62 0.743,0.625 1.296,1.368 1.656,2.232 0.359,0.864 0.54,1.884 0.54,3.06 0.001,1.44 -0.258,2.677 -0.774,3.708 z"
   id="path47"
   inkscape:connector-curvature="0"
   style="fill:#58595b" />
	<path
   d="m 322.952,174 v -25.2 h 19.296 v 5.868 h -12.384 v 3.384 h 7.452 v 5.76 h -7.452 v 4.32 H 342.5 V 174 h -19.548 z"
   id="path49"
   inkscape:connector-curvature="0"
   style="fill:#58595b" />
	<path
   d="m 126.828,204 -1.368,-4.428 H 117.9 L 116.532,204 h -7.488 l 9.144,-25.2 h 7.056 l 9.144,25.2 h -7.56 z M 123.3,192.372 c -0.216,-0.815 -0.408,-1.523 -0.576,-2.124 -0.168,-0.6 -0.318,-1.14 -0.45,-1.62 -0.132,-0.479 -0.246,-0.918 -0.342,-1.313 -0.096,-0.396 -0.18,-0.811 -0.252,-1.242 -0.072,0.432 -0.157,0.852 -0.252,1.26 -0.096,0.408 -0.21,0.853 -0.342,1.332 -0.132,0.48 -0.282,1.021 -0.45,1.62 -0.168,0.6 -0.36,1.296 -0.576,2.088 l -0.468,1.656 h 4.176 l -0.468,-1.657 z"
   id="path51"
   inkscape:connector-curvature="0"
   style="fill:#58595b" />
	<path
   d="m 157.894,191.22 c -0.505,1.104 -1.215,1.998 -2.13,2.683 -0.915,0.684 -2.003,1.176 -3.266,1.476 -1.264,0.301 -2.653,0.45 -4.169,0.45 h -3.501 V 204 h -6.84 v -25.2 h 10.836 c 1.463,0 2.802,0.15 4.014,0.45 1.212,0.3 2.25,0.78 3.114,1.44 0.864,0.661 1.53,1.524 1.998,2.592 0.468,1.068 0.702,2.357 0.702,3.87 0,1.608 -0.254,2.964 -0.758,4.068 z m -6.878,-5.976 c -0.458,-0.504 -1.254,-0.756 -2.388,-0.756 h -3.8 v 5.651 h 3.691 c 1.158,0 1.979,-0.239 2.461,-0.72 0.483,-0.479 0.724,-1.2 0.724,-2.16 0,-0.839 -0.23,-1.511 -0.688,-2.015 z"
   id="path53"
   inkscape:connector-curvature="0"
   style="fill:#58595b" />
	<path
   d="m 182.337,191.22 c -0.505,1.104 -1.215,1.998 -2.13,2.683 -0.915,0.684 -2.003,1.176 -3.266,1.476 -1.264,0.301 -2.653,0.45 -4.169,0.45 h -3.501 V 204 h -6.84 v -25.2 h 10.836 c 1.463,0 2.802,0.15 4.014,0.45 1.212,0.3 2.25,0.78 3.114,1.44 0.864,0.661 1.53,1.524 1.998,2.592 0.468,1.068 0.702,2.357 0.702,3.87 0,1.608 -0.253,2.964 -0.758,4.068 z m -6.878,-5.976 c -0.458,-0.504 -1.254,-0.756 -2.388,-0.756 h -3.8 v 5.651 h 3.691 c 1.158,0 1.979,-0.239 2.461,-0.72 0.483,-0.479 0.724,-1.2 0.724,-2.16 0,-0.839 -0.23,-1.511 -0.688,-2.015 z"
   id="path55"
   inkscape:connector-curvature="0"
   style="fill:#58595b" />
	<path
   d="m 186.875,204 v -25.2 h 7.056 v 19.116 h 11.16 V 204 h -18.216 z"
   id="path57"
   inkscape:connector-curvature="0"
   style="fill:#58595b" />
	<path
   d="m 209.194,204 v -25.2 h 7.128 V 204 h -7.128 z"
   id="path59"
   inkscape:connector-curvature="0"
   style="fill:#58595b" />
	<path
   d="m 241.018,200.31 c -0.576,0.78 -1.278,1.471 -2.106,2.07 -0.828,0.601 -1.806,1.086 -2.934,1.458 -1.128,0.372 -2.436,0.559 -3.924,0.559 -1.872,0 -3.522,-0.331 -4.95,-0.99 -1.428,-0.66 -2.628,-1.566 -3.6,-2.718 -0.972,-1.152 -1.704,-2.521 -2.196,-4.104 -0.492,-1.584 -0.738,-3.312 -0.738,-5.184 0,-2.017 0.282,-3.828 0.846,-5.437 0.563,-1.607 1.356,-2.97 2.376,-4.086 1.02,-1.116 2.232,-1.974 3.636,-2.574 1.404,-0.6 2.958,-0.9 4.662,-0.9 1.535,0 2.862,0.162 3.978,0.486 1.116,0.324 2.076,0.804 2.88,1.44 0.804,0.636 1.481,1.417 2.034,2.34 0.552,0.924 1.044,1.975 1.476,3.15 l -6.336,2.483 c -0.216,-0.576 -0.444,-1.104 -0.684,-1.584 -0.24,-0.479 -0.516,-0.882 -0.828,-1.206 -0.312,-0.323 -0.672,-0.575 -1.08,-0.756 -0.409,-0.18 -0.9,-0.27 -1.476,-0.27 -0.72,0 -1.344,0.174 -1.872,0.521 -0.528,0.349 -0.966,0.828 -1.314,1.44 -0.348,0.611 -0.6,1.338 -0.756,2.178 -0.157,0.841 -0.234,1.764 -0.234,2.772 0,0.96 0.078,1.859 0.234,2.699 0.156,0.841 0.408,1.572 0.756,2.196 0.348,0.624 0.786,1.116 1.314,1.477 0.528,0.359 1.176,0.539 1.944,0.539 0.552,0 1.032,-0.071 1.44,-0.216 0.408,-0.144 0.78,-0.365 1.116,-0.666 0.336,-0.3 0.66,-0.671 0.972,-1.115 0.312,-0.444 0.635,-0.966 0.972,-1.566 l 5.904,3.132 c -0.432,0.843 -0.936,1.652 -1.512,2.432 z"
   id="path61"
   inkscape:connector-curvature="0"
   style="fill:#58595b" />
	<path
   d="m 262.186,204 -1.368,-4.428 h -7.56 L 251.89,204 h -7.488 l 9.144,-25.2 h 7.056 l 9.144,25.2 h -7.56 z m -3.528,-11.628 c -0.216,-0.815 -0.408,-1.523 -0.576,-2.124 -0.168,-0.6 -0.318,-1.14 -0.45,-1.62 -0.132,-0.479 -0.246,-0.918 -0.342,-1.313 -0.096,-0.396 -0.18,-0.811 -0.252,-1.242 -0.072,0.432 -0.157,0.852 -0.252,1.26 -0.096,0.408 -0.21,0.853 -0.342,1.332 -0.132,0.48 -0.282,1.021 -0.45,1.62 -0.168,0.6 -0.36,1.296 -0.576,2.088 l -0.468,1.656 h 4.176 l -0.468,-1.657 z"
   id="path63"
   inkscape:connector-curvature="0"
   style="fill:#58595b" />
	<path
   d="M 282.922,184.884 V 204 h -6.984 v -19.116 h -7.056 V 178.8 h 21.096 v 6.084 h -7.056 z"
   id="path65"
   inkscape:connector-curvature="0"
   style="fill:#58595b" />
	<path
   d="m 294.226,204 v -25.2 h 7.128 V 204 h -7.128 z"
   id="path67"
   inkscape:connector-curvature="0"
   style="fill:#58595b" />
	<path
   d="m 328.065,196.926 c -0.575,1.62 -1.38,2.982 -2.411,4.086 -1.032,1.104 -2.269,1.944 -3.708,2.521 -1.44,0.576 -3.013,0.864 -4.717,0.864 -1.704,0 -3.27,-0.283 -4.698,-0.847 -1.428,-0.563 -2.658,-1.392 -3.69,-2.483 -1.032,-1.092 -1.831,-2.448 -2.394,-4.068 -0.564,-1.62 -0.846,-3.474 -0.846,-5.562 0,-2.088 0.288,-3.941 0.864,-5.562 0.576,-1.621 1.38,-2.982 2.412,-4.086 1.032,-1.104 2.268,-1.944 3.708,-2.52 1.44,-0.576 3.012,-0.864 4.716,-0.864 1.704,0 3.27,0.283 4.698,0.846 1.428,0.564 2.651,1.392 3.672,2.484 1.02,1.092 1.818,2.448 2.394,4.068 0.576,1.62 0.864,3.475 0.864,5.562 0,2.087 -0.287,3.941 -0.864,5.561 z m -7.542,-10.674 c -0.779,-1.176 -1.878,-1.764 -3.294,-1.764 -1.416,0 -2.501,0.576 -3.258,1.728 -0.756,1.152 -1.134,2.868 -1.134,5.148 0,2.28 0.39,4.008 1.17,5.184 0.78,1.177 1.878,1.764 3.294,1.764 1.416,0 2.502,-0.575 3.258,-1.728 0.756,-1.153 1.134,-2.867 1.134,-5.148 0,-2.28 -0.389,-4.008 -1.17,-5.184 z"
   id="path69"
   inkscape:connector-curvature="0"
   style="fill:#58595b" />
	<path
   d="m 349.413,204 -6.012,-8.316 c -0.288,-0.383 -0.624,-0.857 -1.008,-1.422 -0.385,-0.563 -0.763,-1.128 -1.134,-1.691 -0.373,-0.563 -0.721,-1.099 -1.044,-1.603 -0.324,-0.504 -0.57,-0.899 -0.738,-1.188 0.048,0.288 0.084,0.689 0.107,1.206 0.024,0.516 0.048,1.08 0.072,1.691 0.023,0.612 0.036,1.242 0.036,1.891 0,0.647 0,1.224 0,1.728 V 204 h -6.696 v -25.2 h 6.156 l 5.544,7.452 c 0.288,0.384 0.63,0.864 1.026,1.44 0.396,0.575 0.785,1.151 1.17,1.728 0.384,0.576 0.731,1.116 1.044,1.62 0.312,0.504 0.54,0.888 0.684,1.152 -0.048,-0.288 -0.084,-0.69 -0.107,-1.206 -0.024,-0.517 -0.049,-1.08 -0.072,-1.692 -0.024,-0.612 -0.036,-1.242 -0.036,-1.89 0,-0.648 0,-1.225 0,-1.729 V 178.8 h 6.696 V 204 h -5.688 z"
   id="path71"
   inkscape:connector-curvature="0"
   style="fill:#58595b" />
	<path
   d="m 391.999,191.22 c -0.505,1.104 -1.215,1.998 -2.13,2.683 -0.914,0.684 -2.003,1.176 -3.267,1.476 -1.263,0.301 -2.652,0.45 -4.168,0.45 h -3.501 V 204 h -6.841 v -25.2 h 10.836 c 1.464,0 2.802,0.15 4.015,0.45 1.211,0.3 2.25,0.78 3.113,1.44 0.864,0.661 1.53,1.524 1.998,2.592 0.469,1.068 0.702,2.357 0.702,3.87 0.001,1.608 -0.252,2.964 -0.757,4.068 z m -6.878,-5.976 c -0.458,-0.504 -1.254,-0.756 -2.389,-0.756 h -3.799 v 5.651 h 3.69 c 1.158,0 1.979,-0.239 2.461,-0.72 0.482,-0.479 0.725,-1.2 0.725,-2.16 10e-4,-0.839 -0.229,-1.511 -0.688,-2.015 z"
   id="path73"
   inkscape:connector-curvature="0"
   style="fill:#58595b" />
	<path
   d="m 396.536,204 v -25.2 h 7.057 v 19.116 h 11.16 V 204 h -18.217 z"
   id="path75"
   inkscape:connector-curvature="0"
   style="fill:#58595b" />
	<path
   d="m 434.948,204 -1.368,-4.428 h -7.56 L 424.652,204 h -7.488 l 9.145,-25.2 h 7.056 l 9.144,25.2 h -7.561 z m -3.528,-11.628 c -0.216,-0.815 -0.408,-1.523 -0.576,-2.124 -0.168,-0.6 -0.318,-1.14 -0.449,-1.62 -0.133,-0.479 -0.247,-0.918 -0.343,-1.313 -0.096,-0.396 -0.18,-0.811 -0.252,-1.242 -0.071,0.432 -0.156,0.852 -0.252,1.26 -0.096,0.408 -0.21,0.853 -0.342,1.332 -0.132,0.48 -0.282,1.021 -0.45,1.62 -0.168,0.599 -0.359,1.296 -0.576,2.088 l -0.468,1.656 h 4.176 l -0.468,-1.657 z"
   id="path77"
   inkscape:connector-curvature="0"
   style="fill:#58595b" />
	<path
   d="M 455.685,184.884 V 204 h -6.983 v -19.116 h -7.057 V 178.8 h 21.097 v 6.084 h -7.057 z"
   id="path79"
   inkscape:connector-curvature="0"
   style="fill:#58595b" />
	<path
   d="m 473.757,184.74 v 3.492 h 7.884 v 5.903 h -7.884 V 204 h -6.948 v -25.2 h 19.944 v 5.94 h -12.996 z"
   id="path81"
   inkscape:connector-curvature="0"
   style="fill:#58595b" />
	<path
   d="m 511.088,196.926 c -0.575,1.62 -1.38,2.982 -2.411,4.086 -1.032,1.104 -2.269,1.944 -3.708,2.521 -1.44,0.576 -3.013,0.864 -4.717,0.864 -1.704,0 -3.271,-0.283 -4.697,-0.847 -1.429,-0.563 -2.659,-1.392 -3.69,-2.483 -1.032,-1.092 -1.83,-2.448 -2.394,-4.068 -0.564,-1.62 -0.847,-3.474 -0.847,-5.562 0,-2.088 0.288,-3.941 0.864,-5.562 0.576,-1.621 1.38,-2.982 2.412,-4.086 1.031,-1.104 2.268,-1.944 3.708,-2.52 1.439,-0.576 3.012,-0.864 4.716,-0.864 1.704,0 3.27,0.283 4.698,0.846 1.428,0.564 2.651,1.392 3.672,2.484 1.02,1.092 1.818,2.448 2.394,4.068 0.576,1.62 0.864,3.475 0.864,5.562 0,2.087 -0.288,3.941 -0.864,5.561 z m -7.542,-10.674 c -0.779,-1.176 -1.878,-1.764 -3.294,-1.764 -1.416,0 -2.502,0.576 -3.258,1.728 -0.756,1.152 -1.134,2.868 -1.134,5.148 0,2.28 0.39,4.008 1.17,5.184 0.779,1.177 1.878,1.764 3.294,1.764 1.416,0 2.502,-0.575 3.258,-1.728 0.756,-1.153 1.134,-2.867 1.134,-5.148 0,-2.28 -0.39,-4.008 -1.17,-5.184 z"
   id="path83"
   inkscape:connector-curvature="0"
   style="fill:#58595b" />
	<path
   d="m 529.789,204 -4.114,-8.496 h -2.814 V 204 h -6.841 v -25.2 h 11.269 c 1.464,0 2.802,0.15 4.014,0.45 1.212,0.3 2.25,0.774 3.114,1.422 0.864,0.648 1.53,1.494 1.998,2.538 0.468,1.044 0.702,2.311 0.702,3.798 0,1.896 -0.41,3.444 -1.228,4.645 -0.818,1.2 -1.925,2.112 -3.32,2.735 L 537.62,204 h -7.831 z m -0.326,-18.756 c -0.471,-0.504 -1.261,-0.756 -2.37,-0.756 h -4.232 v 5.508 h 4.124 c 1.157,0 1.977,-0.239 2.46,-0.72 0.482,-0.48 0.724,-1.176 0.724,-2.088 -10e-4,-0.792 -0.236,-1.44 -0.706,-1.944 z"
   id="path85"
   inkscape:connector-curvature="0"
   style="fill:#58595b" />
	<path
   d="m 560.516,204 v -6.012 c 0,-1.248 0.012,-2.431 0.035,-3.546 0.024,-1.116 0.061,-2.166 0.108,-3.15 -0.192,0.48 -0.408,1.008 -0.647,1.584 -0.24,0.576 -0.492,1.158 -0.757,1.746 -0.264,0.588 -0.527,1.164 -0.792,1.728 -0.264,0.564 -0.504,1.075 -0.72,1.53 l -3.312,6.984 -3.312,-6.984 c -0.216,-0.455 -0.456,-0.966 -0.72,-1.53 -0.265,-0.563 -0.528,-1.14 -0.792,-1.728 -0.265,-0.588 -0.517,-1.17 -0.756,-1.746 -0.24,-0.576 -0.456,-1.104 -0.648,-1.584 0.048,0.984 0.084,2.034 0.108,3.15 0.023,1.115 0.036,2.298 0.036,3.546 V 204 h -6.553 v -25.2 h 6.408 l 3.096,6.732 c 0.384,0.816 0.744,1.602 1.08,2.357 0.336,0.757 0.643,1.465 0.918,2.124 0.276,0.661 0.517,1.255 0.721,1.782 0.203,0.528 0.354,0.972 0.449,1.332 0.217,-0.72 0.6,-1.733 1.152,-3.042 0.552,-1.308 1.224,-2.826 2.017,-4.554 l 3.096,-6.732 h 6.336 V 204 h -6.551 z"
   id="path87"
   inkscape:connector-curvature="0"
   style="fill:#58595b" />
</g>
</svg>